<svg width="1600" height="2000" viewBox="0 0 1600 2000" fill="none" xmlns="http://www.w3.org/2000/svg">
  <defs>
    <linearGradient id="bg" x1="0" y1="0" x2="1" y2="1">
      <stop offset="0%" stop-color="#F7F3EE" />
      <stop offset="100%" stop-color="#E8E2DA" />
    </linearGradient>
    <linearGradient id="panel" x1="0" y1="0" x2="0" y2="1">
      <stop offset="0%" stop-color="#EDE6DD" />
      <stop offset="100%" stop-color="#D9CFC4" />
    </linearGradient>
  </defs>
  <rect width="1600" height="2000" fill="url(#bg)"/>
  <circle cx="320" cy="360" r="220" fill="#E3DAD1"/>
  <circle cx="1300" cy="1700" r="260" fill="#D1C5B8"/>
  <rect x="520" y="260" width="620" height="1480" rx="60" fill="url(#panel)" stroke="#C9BEB2" stroke-width="3"/>
  <rect x="560" y="320" width="540" height="1360" rx="52" fill="#F6F1EB"/>
  <rect x="610" y="380" width="440" height="1250" rx="46" fill="#E8E2DA"/>
  <rect x="650" y="460" width="360" height="1100" rx="40" fill="#C9BEB2"/>
  <path d="M780 430 C820 390 1040 390 1080 440 L1080 1420 C1060 1500 940 1550 830 1550 C720 1550 600 1500 580 1420 L580 520 C620 470 740 470 780 430 Z" fill="#B2A59F"/>
  <path d="M700 640 C750 590 950 590 1000 640 L1000 1320 C980 1380 900 1410 850 1410 C800 1410 720 1380 700 1320 Z" fill="#CFC4B8"/>
  <path d="M840 420 C840 380 900 360 930 400 L980 470 C1000 500 960 540 930 520 L880 480 C855 460 840 445 840 420 Z" fill="#9C8B7F"/>
  <text x="800" y="1670" text-anchor="middle" font-family="Georgia, serif" font-size="64" fill="#7A6B60">BeigeAura Collection</text>
  <text x="800" y="1740" text-anchor="middle" font-family="Helvetica, Arial, sans-serif" font-size="28" fill="#6A5C52">Structured silhouettes, softened in neutral light.</text>
</svg>
